<mxfile host="Electron" modified="2023-06-07T12:38:47.533Z" agent="Mozilla/5.0 (Windows NT 10.0; Win64; x64) AppleWebKit/537.36 (KHTML, like Gecko) draw.io/21.2.8 Chrome/112.0.5615.165 Electron/24.2.0 Safari/537.36" etag="eO8Okny2SlrkdBUTo1Lp" version="21.2.8" type="device">
  <diagram name="Page-1" id="TilhMYZYxlD-UKhyFr3f">
    <mxGraphModel dx="1493" dy="872" grid="1" gridSize="3.937" guides="1" tooltips="1" connect="1" arrows="1" fold="1" page="1" pageScale="1" pageWidth="1169" pageHeight="1654" math="0" shadow="0">
      <root>
        <mxCell id="0" />
        <mxCell id="1" parent="0" />
        <mxCell id="eVw-jYeP_k1zn37z6wkt-1" value="" style="rounded=0;whiteSpace=wrap;html=1;strokeWidth=2;" vertex="1" parent="1">
          <mxGeometry x="80" y="70" width="492.125" height="492.125" as="geometry" />
        </mxCell>
        <mxCell id="eVw-jYeP_k1zn37z6wkt-16" value="Xx" style="rounded=0;whiteSpace=wrap;html=1;absoluteArcSize=1;arcSize=14;strokeWidth=2;" vertex="1" parent="1">
          <mxGeometry x="154.76" y="96" width="342.62" height="175.65" as="geometry" />
        </mxCell>
        <mxCell id="eVw-jYeP_k1zn37z6wkt-13" value="" style="rounded=0;whiteSpace=wrap;html=1;strokeWidth=2;fontSize=10;fontFamily=Times New Roman;" vertex="1" parent="1">
          <mxGeometry x="176.46" y="110.37" width="299.21" height="121.91" as="geometry" />
        </mxCell>
        <mxCell id="eVw-jYeP_k1zn37z6wkt-22" value="" style="strokeWidth=2;html=1;shape=mxgraph.flowchart.decision;whiteSpace=wrap;strokeColor=none;" vertex="1" parent="1">
          <mxGeometry x="81.68" y="249.03" width="118.11" height="78.74" as="geometry" />
        </mxCell>
        <mxCell id="eVw-jYeP_k1zn37z6wkt-23" value="" style="strokeWidth=2;html=1;shape=mxgraph.flowchart.decision;whiteSpace=wrap;strokeColor=none;" vertex="1" parent="1">
          <mxGeometry x="447.817" y="251.967" width="118.11" height="78.74" as="geometry" />
        </mxCell>
        <mxCell id="eVw-jYeP_k1zn37z6wkt-12" value="&lt;font style=&quot;font-size: 14px;&quot; face=&quot;Times New Roman&quot;&gt;МОБИЛЬНОЕ ПРИЛОЖЕНИЕ&lt;br style=&quot;font-size: 14px;&quot;&gt;ПО ФОРМИРОВАНИЮ ЗАЯВОК ТОВАРОВ&lt;br style=&quot;font-size: 14px;&quot;&gt;ДЛЯ ООО &quot;ДЕ-ПА&quot;&lt;br style=&quot;font-size: 14px;&quot;&gt;ТЕКСТ ПРОГРАММЫ&lt;br&gt;&lt;br style=&quot;font-size: 14px;&quot;&gt;ДП.ПО4.190333-09 81 00&lt;/font&gt;" style="strokeWidth=2;html=1;shape=mxgraph.flowchart.loop_limit;whiteSpace=wrap;flipH=1;flipV=1;shadow=0;strokeColor=default;fillColor=none;fontSize=14;" vertex="1" parent="1">
          <mxGeometry x="80.00999999999993" y="70.00000000000001" width="492.13" height="201.65" as="geometry" />
        </mxCell>
        <mxCell id="eVw-jYeP_k1zn37z6wkt-24" value="" style="rounded=0;whiteSpace=wrap;html=1;absoluteArcSize=1;arcSize=14;strokeWidth=2;fillColor=default;strokeColor=none;" vertex="1" parent="1">
          <mxGeometry x="81" y="71" width="39.31" height="39.37" as="geometry" />
        </mxCell>
        <mxCell id="eVw-jYeP_k1zn37z6wkt-25" value="" style="rounded=0;whiteSpace=wrap;html=1;absoluteArcSize=1;arcSize=14;strokeWidth=2;fillColor=default;strokeColor=none;" vertex="1" parent="1">
          <mxGeometry x="531.817" y="70.997" width="39.31" height="39.37" as="geometry" />
        </mxCell>
      </root>
    </mxGraphModel>
  </diagram>
</mxfile>
